<mxfile host="app.diagrams.net" modified="2023-12-18T09:18:08.990Z" agent="Mozilla/5.0 (Windows NT 10.0; Win64; x64) AppleWebKit/537.36 (KHTML, like Gecko) Chrome/119.0.0.0 Safari/537.36" etag="ZUbrQMu2O0rU6Y_CJzlU" version="22.1.11" type="github">
  <diagram name="Page-1" id="r9KgoVCYdqJ9KJq_59oU">
    <mxGraphModel dx="955" dy="637" grid="1" gridSize="10" guides="1" tooltips="1" connect="1" arrows="1" fold="1" page="1" pageScale="1" pageWidth="827" pageHeight="1169" math="0" shadow="0">
      <root>
        <mxCell id="0" />
        <mxCell id="1" parent="0" />
        <mxCell id="ieEwcSVPILZhV7FS9laS-9" value="" style="rounded=1;whiteSpace=wrap;html=1;" vertex="1" parent="1">
          <mxGeometry x="80" y="280" width="40" height="30" as="geometry" />
        </mxCell>
        <mxCell id="ieEwcSVPILZhV7FS9laS-10" value="" style="rounded=1;whiteSpace=wrap;html=1;" vertex="1" parent="1">
          <mxGeometry x="180" y="280" width="40" height="30" as="geometry" />
        </mxCell>
        <mxCell id="ieEwcSVPILZhV7FS9laS-11" value="" style="endArrow=classic;html=1;exitX=0.5;exitY=0;exitDx=0;exitDy=0;curved=1;entryX=0.5;entryY=0;entryDx=0;entryDy=0;" edge="1" parent="1" source="ieEwcSVPILZhV7FS9laS-9" target="ieEwcSVPILZhV7FS9laS-10">
          <mxGeometry relative="1" as="geometry">
            <mxPoint x="240" y="280" as="sourcePoint" />
            <mxPoint x="140" y="230" as="targetPoint" />
            <Array as="points">
              <mxPoint x="150" y="220" />
            </Array>
          </mxGeometry>
        </mxCell>
        <mxCell id="ieEwcSVPILZhV7FS9laS-12" value="Label" style="edgeLabel;resizable=0;html=1;align=center;verticalAlign=middle;" connectable="0" vertex="1" parent="ieEwcSVPILZhV7FS9laS-11">
          <mxGeometry relative="1" as="geometry">
            <mxPoint x="3" y="27" as="offset" />
          </mxGeometry>
        </mxCell>
        <mxCell id="ieEwcSVPILZhV7FS9laS-13" value="" style="shape=table;startSize=0;container=1;collapsible=0;childLayout=tableLayout;fontSize=16;fillColor=#dae8fc;strokeColor=#6c8ebf;" vertex="1" parent="1">
          <mxGeometry x="80" y="430" width="30" height="111" as="geometry" />
        </mxCell>
        <mxCell id="ieEwcSVPILZhV7FS9laS-14" value="" style="shape=tableRow;horizontal=0;startSize=0;swimlaneHead=0;swimlaneBody=0;strokeColor=inherit;top=0;left=0;bottom=0;right=0;collapsible=0;dropTarget=0;fillColor=none;points=[[0,0.5],[1,0.5]];portConstraint=eastwest;fontSize=16;" vertex="1" parent="ieEwcSVPILZhV7FS9laS-13">
          <mxGeometry width="30" height="37" as="geometry" />
        </mxCell>
        <mxCell id="ieEwcSVPILZhV7FS9laS-26" style="shape=partialRectangle;html=1;whiteSpace=wrap;connectable=0;strokeColor=inherit;overflow=hidden;fillColor=none;top=0;left=0;bottom=0;right=0;pointerEvents=1;fontSize=16;" vertex="1" parent="ieEwcSVPILZhV7FS9laS-14">
          <mxGeometry width="30" height="37" as="geometry">
            <mxRectangle width="30" height="37" as="alternateBounds" />
          </mxGeometry>
        </mxCell>
        <mxCell id="ieEwcSVPILZhV7FS9laS-18" value="" style="shape=tableRow;horizontal=0;startSize=0;swimlaneHead=0;swimlaneBody=0;strokeColor=inherit;top=0;left=0;bottom=0;right=0;collapsible=0;dropTarget=0;fillColor=none;points=[[0,0.5],[1,0.5]];portConstraint=eastwest;fontSize=16;" vertex="1" parent="ieEwcSVPILZhV7FS9laS-13">
          <mxGeometry y="37" width="30" height="37" as="geometry" />
        </mxCell>
        <mxCell id="ieEwcSVPILZhV7FS9laS-27" style="shape=partialRectangle;html=1;whiteSpace=wrap;connectable=0;strokeColor=inherit;overflow=hidden;fillColor=none;top=0;left=0;bottom=0;right=0;pointerEvents=1;fontSize=16;" vertex="1" parent="ieEwcSVPILZhV7FS9laS-18">
          <mxGeometry width="30" height="37" as="geometry">
            <mxRectangle width="30" height="37" as="alternateBounds" />
          </mxGeometry>
        </mxCell>
        <mxCell id="ieEwcSVPILZhV7FS9laS-22" value="" style="shape=tableRow;horizontal=0;startSize=0;swimlaneHead=0;swimlaneBody=0;strokeColor=inherit;top=0;left=0;bottom=0;right=0;collapsible=0;dropTarget=0;fillColor=none;points=[[0,0.5],[1,0.5]];portConstraint=eastwest;fontSize=16;" vertex="1" parent="ieEwcSVPILZhV7FS9laS-13">
          <mxGeometry y="74" width="30" height="37" as="geometry" />
        </mxCell>
        <mxCell id="ieEwcSVPILZhV7FS9laS-28" style="shape=partialRectangle;html=1;whiteSpace=wrap;connectable=0;strokeColor=inherit;overflow=hidden;fillColor=none;top=0;left=0;bottom=0;right=0;pointerEvents=1;fontSize=16;" vertex="1" parent="ieEwcSVPILZhV7FS9laS-22">
          <mxGeometry width="30" height="37" as="geometry">
            <mxRectangle width="30" height="37" as="alternateBounds" />
          </mxGeometry>
        </mxCell>
        <UserObject label="The" placeholders="1" name="Variable" id="ieEwcSVPILZhV7FS9laS-34">
          <mxCell style="text;html=1;strokeColor=none;fillColor=none;align=center;verticalAlign=middle;whiteSpace=wrap;overflow=hidden;" vertex="1" parent="1">
            <mxGeometry x="280" y="400" width="40" height="20" as="geometry" />
          </mxCell>
        </UserObject>
        <UserObject label="food" placeholders="1" name="Variable" id="ieEwcSVPILZhV7FS9laS-35">
          <mxCell style="text;html=1;strokeColor=none;fillColor=none;align=center;verticalAlign=middle;whiteSpace=wrap;overflow=hidden;" vertex="1" parent="1">
            <mxGeometry x="310" y="400" width="50" height="20" as="geometry" />
          </mxCell>
        </UserObject>
        <UserObject label="though" placeholders="1" name="Variable" id="ieEwcSVPILZhV7FS9laS-36">
          <mxCell style="text;html=1;strokeColor=none;fillColor=none;align=center;verticalAlign=middle;whiteSpace=wrap;overflow=hidden;" vertex="1" parent="1">
            <mxGeometry x="360" y="400" width="50" height="20" as="geometry" />
          </mxCell>
        </UserObject>
        <UserObject label="served" placeholders="1" name="Variable" id="ieEwcSVPILZhV7FS9laS-38">
          <mxCell style="text;html=1;strokeColor=none;fillColor=none;align=center;verticalAlign=middle;whiteSpace=wrap;overflow=hidden;" vertex="1" parent="1">
            <mxGeometry x="404" y="400" width="50" height="20" as="geometry" />
          </mxCell>
        </UserObject>
        <UserObject label="with" placeholders="1" name="Variable" id="ieEwcSVPILZhV7FS9laS-39">
          <mxCell style="text;html=1;strokeColor=none;fillColor=none;align=center;verticalAlign=middle;whiteSpace=wrap;overflow=hidden;" vertex="1" parent="1">
            <mxGeometry x="441" y="400" width="50" height="20" as="geometry" />
          </mxCell>
        </UserObject>
        <UserObject label="bad" placeholders="1" name="Variable" id="ieEwcSVPILZhV7FS9laS-40">
          <mxCell style="text;html=1;strokeColor=none;fillColor=none;align=center;verticalAlign=middle;whiteSpace=wrap;overflow=hidden;" vertex="1" parent="1">
            <mxGeometry x="471" y="400" width="50" height="20" as="geometry" />
          </mxCell>
        </UserObject>
        <UserObject label="service" placeholders="1" name="Variable" id="ieEwcSVPILZhV7FS9laS-41">
          <mxCell style="text;html=1;strokeColor=none;fillColor=none;align=center;verticalAlign=middle;whiteSpace=wrap;overflow=hidden;" vertex="1" parent="1">
            <mxGeometry x="510" y="400" width="50" height="20" as="geometry" />
          </mxCell>
        </UserObject>
        <UserObject label="is" placeholders="1" name="Variable" id="ieEwcSVPILZhV7FS9laS-42">
          <mxCell style="text;html=1;strokeColor=none;fillColor=none;align=center;verticalAlign=middle;whiteSpace=wrap;overflow=hidden;" vertex="1" parent="1">
            <mxGeometry x="560" y="400" width="30" height="20" as="geometry" />
          </mxCell>
        </UserObject>
        <UserObject label="actually" placeholders="1" name="Variable" id="ieEwcSVPILZhV7FS9laS-43">
          <mxCell style="text;html=1;strokeColor=none;fillColor=none;align=center;verticalAlign=middle;whiteSpace=wrap;overflow=hidden;" vertex="1" parent="1">
            <mxGeometry x="582" y="400" width="50" height="20" as="geometry" />
          </mxCell>
        </UserObject>
        <UserObject label="great" placeholders="1" name="Variable" id="ieEwcSVPILZhV7FS9laS-44">
          <mxCell style="text;html=1;strokeColor=none;fillColor=none;align=center;verticalAlign=middle;whiteSpace=wrap;overflow=hidden;" vertex="1" parent="1">
            <mxGeometry x="623" y="400" width="50" height="20" as="geometry" />
          </mxCell>
        </UserObject>
        <UserObject label="," placeholders="1" name="Variable" id="ieEwcSVPILZhV7FS9laS-45">
          <mxCell style="text;html=1;strokeColor=none;fillColor=none;align=center;verticalAlign=middle;whiteSpace=wrap;overflow=hidden;" vertex="1" parent="1">
            <mxGeometry x="550" y="400" width="20" height="20" as="geometry" />
          </mxCell>
        </UserObject>
        <UserObject label="," placeholders="1" name="Variable" id="ieEwcSVPILZhV7FS9laS-46">
          <mxCell style="text;html=1;strokeColor=none;fillColor=none;align=center;verticalAlign=middle;whiteSpace=wrap;overflow=hidden;" vertex="1" parent="1">
            <mxGeometry x="345" y="400" width="20" height="20" as="geometry" />
          </mxCell>
        </UserObject>
      </root>
    </mxGraphModel>
  </diagram>
</mxfile>
